<?xml version="1.0" encoding="UTF-8"?>
<svg width="122px" height="53px" viewBox="0 0 122 53" version="1.1" xmlns="http://www.w3.org/2000/svg" xmlns:xlink="http://www.w3.org/1999/xlink">
    <!-- Generator: Sketch 42 (36781) - http://www.bohemiancoding.com/sketch -->
    <title>theory. copy 2</title>
    <desc>Created with Sketch.</desc>
    <defs></defs>
    <g id="Page-1" stroke="none" stroke-width="1" fill="none" fill-rule="evenodd">
        <path d="M8.109375,22.3125 L5.9765625,39.5859375 L0.796875,39.5859375 L2.9296875,22.3125 L0,22.3125 L0.5859375,17.5078125 L3.515625,17.5078125 L4.78125,7.265625 L9.9609375,7.265625 L8.6953125,17.5078125 L13.4765625,17.5078125 L12.890625,22.3125 L8.109375,22.3125 Z M22.0546875,0 L19.6640625,19.3828125 C21.7421979,17.7734295 23.8515518,16.96875 25.9921875,16.96875 C28.1484483,16.96875 29.8671811,17.5390568 31.1484375,18.6796875 C32.4765691,19.8046931 33.140625,21.2812409 33.140625,23.109375 C33.140625,23.5468772 33.1171877,24.042966 33.0703125,24.5976562 C33.0234373,25.1523465 32.9609379,25.7812465 32.8828125,26.484375 L31.265625,39.5859375 L26.0859375,39.5859375 L27.7265625,26.203125 C27.820313,25.4843714 27.8671875,24.8359404 27.8671875,24.2578125 C27.8671875,22.2890527 26.7109491,21.3046875 24.3984375,21.3046875 C21.0859209,21.3046875 19.1562527,23.5468526 18.609375,28.03125 L17.1796875,39.5859375 L12,39.5859375 L16.875,0 L22.0546875,0 Z M40.8046875,30.3984375 C40.8046875,32.0234456 41.3671819,33.3593698 42.4921875,34.40625 C43.6328182,35.4531302 45.0859287,35.9765625 46.8515625,35.9765625 C49.2734496,35.9765625 51.132806,35.0703216 52.4296875,33.2578125 L56.296875,35.390625 C54.9531183,37.2031341 53.5703196,38.4687464 52.1484375,39.1875 C50.7109303,39.9218787 48.9140733,40.2890625 46.7578125,40.2890625 C43.3359204,40.2890625 40.6093852,39.2812601 38.578125,37.265625 C36.5468648,35.2499899 35.53125,32.5547044 35.53125,29.1796875 C35.53125,25.6484198 36.6484263,22.6953244 38.8828125,20.3203125 C41.1015736,17.9609257 43.906233,16.78125 47.296875,16.78125 C50.5781414,16.78125 53.164053,17.8437394 55.0546875,19.96875 C56.9765721,22.1093857 57.9375,24.9765445 57.9375,28.5703125 C57.9375,28.9453144 57.9140627,29.5546833 57.8671875,30.3984375 L40.8046875,30.3984375 Z M52.6875,26.2265625 C52.1406223,22.8202955 50.2578286,21.1171875 47.0390625,21.1171875 C43.9921723,21.1171875 42.0078171,22.8202955 41.0859375,26.2265625 L52.6875,26.2265625 Z M83.8125,28.3359375 C83.8125,31.7109544 82.6406367,34.5468635 80.296875,36.84375 C77.9687384,39.1406365 75.0937671,40.2890625 71.671875,40.2890625 C68.0937321,40.2890625 65.1718863,39.2031359 62.90625,37.03125 C60.6249886,34.8437391 59.484375,32.0781417 59.484375,28.734375 C59.484375,25.3124829 60.6640507,22.4687613 63.0234375,20.203125 C65.3984494,17.9218636 68.3671697,16.78125 71.9296875,16.78125 C75.429705,16.78125 78.281239,17.8593642 80.484375,20.015625 C82.7031361,22.1406356 83.8125,24.9140454 83.8125,28.3359375 Z M78.5859375,28.078125 C78.5859375,30.3906366 77.9218816,32.2812427 76.59375,33.75 C75.2812434,35.2343824 73.6093852,35.9765625 71.578125,35.9765625 C69.5468648,35.9765625 67.8906314,35.2968818 66.609375,33.9375 C65.3281186,32.6093684 64.6875,30.8515734 64.6875,28.6640625 C64.6875,26.4921766 65.3671807,24.6875072 66.7265625,23.25 C68.0859443,21.8281179 69.8046771,21.1171875 71.8828125,21.1171875 C73.8828225,21.1171875 75.4999938,21.7578061 76.734375,23.0390625 C77.9687562,24.2734437 78.5859375,25.9531144 78.5859375,28.078125 Z M93.2109375,17.5078125 L92.9765625,19.40625 C94.7265713,17.7499917 96.4921786,16.921875 98.2734375,16.921875 C99.6139505,16.921875 100.850943,17.34164 101.984441,18.1811809 C102.172153,18.3202125 102.357027,18.4707563 102.539062,18.6328125 L99.234375,22.8984375 C98.2812452,22.0859334 97.3281298,21.6796875 96.375,21.6796875 C95.7187467,21.6796875 95.1406275,21.8085925 94.640625,22.0664062 C94.1406225,22.32422 93.7070331,22.730466 93.3398438,23.2851562 C92.9726544,23.8398465 92.66797,24.5546831 92.4257812,25.4296875 C92.1835925,26.3046919 91.9921882,27.3515564 91.8515625,28.5703125 L90.4921875,39.5859375 L85.3125,39.5859375 L88.03125,17.5078125 L93.2109375,17.5078125 Z M121.55625,17.5078125 L101.564062,52.21875 L95.6578125,52.21875 L104.540625,36.84375 L100.227042,23.8595683 L103.522613,19.6512632 L107.634375,31.6171875 L115.626562,17.5078125 L121.55625,17.5078125 Z M119.878125,37.03125 C119.878125,37.8593791 119.557816,38.578122 118.917188,39.1875 C118.276559,39.796878 117.534379,40.1015625 116.690625,40.1015625 C115.831246,40.1015625 115.096878,39.7890656 114.4875,39.1640625 C113.878122,38.5390594 113.573438,37.773442 113.573438,36.8671875 C113.573438,35.9921831 113.854685,35.2578155 114.417188,34.6640625 C115.01094,34.0703095 115.721871,33.7734375 116.55,33.7734375 C117.47188,33.7734375 118.253122,34.0937468 118.89375,34.734375 C119.550003,35.3750032 119.878125,36.1406205 119.878125,37.03125 Z" id="theory.-copy-2" fill="#FFFFFF"></path>
    </g>
</svg>